<svg style="position: absolute; width: 0; height: 0; overflow: hidden;" version="1.1" xmlns="http://www.w3.org/2000/svg" xmlns:xlink="http://www.w3.org/1999/xlink">
<defs>

<symbol id="header-blue-back" fill="none" viewBox="0 0 752 686">
<title>header-blue-back</title>
<circle cx="423.5" cy="262.5" fill="#4e6bff" r="423.5"/>
</symbol>

<symbol id="wave-shape" fill="none" viewBox="0 0 85 46">
<title>header-wave-shape</title>
<g clip-rule="evenodd" fill="#f36a8d" fill-rule="evenodd">
<path d="m72.3816 2.39296c-2.7115-.33054-5.3128.76981-7.9997 3.07281-4.4217 3.78994-12.0941 5.67533-19.0096.01716-2.9626-2.42393-5.5448-2.80714-7.6783-2.45157-2.2089.36815-4.0668 1.5458-5.5272 2.51938-2.3129 1.54198-4.8601 3.16234-7.7936 3.54259-3.028.39252-6.2613-.54772-9.9446-3.6171-3.084-2.56998-5.72289-3.06431-7.74997-2.75244-2.07407.31909-3.6901 1.51064-4.62006 2.60969-.41646.49218-1.153051.55356-1.645225.1371-.4921754-.41645-.553558-1.15304-.137102-1.64522 1.210227-1.43027 3.300957-2.986644 6.047357-3.409179 2.79339-.4297634 6.0886.340568 9.5997 3.266439 3.321 2.76748 5.9246 3.38377 8.1498 3.09533 2.3197-.3007 4.4421-1.59879 6.7986-3.16984l.6476.97131-.6476-.97131c1.4581-.97206 3.686-2.42101 6.4385-2.879741 2.8279-.471308 6.0825.118301 9.5405 2.947551 5.862 4.79614 12.2618 3.23134 16.0118.01715 2.9538-2.53176 6.1894-4.058061 9.8016-3.6177154 3.5762.4359454 7.2235 2.7663354 11.1021 7.2415754.4222.48721.3695 1.22448-.1177 1.64673s-1.2245.36959-1.6467-.11763c-3.7094-4.28012-6.8726-6.11814-9.6202-6.45307z"/><path d="m72.3816 14.6417c-2.7115-.3305-5.3128.7699-7.9997 3.0728-4.4217 3.79-12.0941 5.6754-19.0096.0172-2.9626-2.4239-5.5448-2.8071-7.6783-2.4516-2.2089.3682-4.0668 1.5458-5.5272 2.5194-2.3129 1.542-4.8601 3.1624-7.7936 3.5426-3.028.3925-6.2613-.5477-9.9446-3.6171-3.084-2.57-5.72289-3.0643-7.74997-2.7524-2.07407.3191-3.6901 1.5106-4.62006 2.6097-.41646.4921-1.153051.5535-1.645225.1371-.4921754-.4165-.553558-1.1531-.137102-1.6453 1.210227-1.4302 3.300957-2.9866 6.047357-3.4091 2.79339-.4298 6.0886.3405 9.5997 3.2664 3.321 2.7675 5.9246 3.3838 8.1498 3.0953 2.3197-.3007 4.4421-1.5988 6.7986-3.1698l.6476.9713-.6476-.9713c1.4581-.9721 3.686-2.421 6.4385-2.8798 2.8279-.4713 6.0825.1183 9.5405 2.9476 5.862 4.7961 12.2618 3.2313 16.0118.0172 2.9538-2.5318 6.1894-4.0581 9.8016-3.6178 3.5762.436 7.2235 2.7664 11.1021 7.2416.4222.4872.3695 1.2245-.1177 1.6467-.4872.4223-1.2245.3696-1.6467-.1176-3.7094-4.2801-6.8726-6.1181-9.6202-6.4531z"/><path d="m72.3816 26.8905c-2.7115-.3305-5.3128.7698-7.9997 3.0728-4.4217 3.79-12.0941 5.6753-19.0096.0172-2.9626-2.4239-5.5448-2.8072-7.6783-2.4516-2.2089.3682-4.0668 1.5458-5.5272 2.5194-2.3129 1.542-4.8601 3.1623-7.7936 3.5426-3.028.3925-6.2613-.5477-9.9446-3.6171-3.084-2.57-5.72289-3.0643-7.74997-2.7525-2.07407.3191-3.6901 1.5107-4.62006 2.6097-.41646.4922-1.153051.5536-1.645225.1371-.4921754-.4164-.553558-1.153-.137102-1.6452 1.210227-1.4302 3.300957-2.9866 6.047357-3.4092 2.79339-.4297 6.0886.3406 9.5997 3.2665 3.321 2.7675 5.9246 3.3837 8.1498 3.0953 2.3197-.3007 4.4421-1.5988 6.7986-3.1698l.6476.9713-.6476-.9713c1.4581-.9721 3.686-2.421 6.4385-2.8798 2.8279-.4713 6.0825.1183 9.5405 2.9476 5.862 4.7961 12.2618 3.2313 16.0118.0171 2.9538-2.5317 6.1894-4.058 9.8016-3.6177 3.5762.436 7.2235 2.7664 11.1021 7.2416.4222.4872.3695 1.2245-.1177 1.6467-.4872.4223-1.2245.3696-1.6467-.1176-3.7094-4.2801-6.8726-6.1181-9.6202-6.4531z"/><path d="m72.3816 39.1393c-2.7115-.3305-5.3128.7698-7.9997 3.0728-4.4217 3.79-12.0941 5.6753-19.0096.0172-2.9626-2.424-5.5448-2.8072-7.6783-2.4516-2.2089.3681-4.0668 1.5458-5.5272 2.5194-2.3129 1.542-4.8601 3.1623-7.7936 3.5426-3.028.3925-6.2613-.5477-9.9446-3.6171-3.084-2.57-5.72289-3.0643-7.74997-2.7525-2.07407.3191-3.6901 1.5107-4.62006 2.6097-.41646.4922-1.153051.5536-1.645225.1371-.4921754-.4164-.553558-1.153-.137102-1.6452 1.210227-1.4303 3.300957-2.9866 6.047357-3.4092 2.79339-.4297 6.0886.3406 9.5997 3.2665 3.321 2.7674 5.9246 3.3837 8.1498 3.0953 2.3197-.3007 4.4421-1.5988 6.7986-3.1699l.6476.9714-.6476-.9714c1.4581-.972 3.686-2.421 6.4385-2.8797 2.8279-.4713 6.0825.1183 9.5405 2.9476 5.862 4.7961 12.2618 3.2313 16.0118.0171 2.9538-2.5318 6.1894-4.0581 9.8016-3.6177 3.5762.4359 7.2235 2.7663 11.1021 7.2416.4222.4872.3695 1.2244-.1177 1.6467-.4872.4222-1.2245.3696-1.6467-.1176-3.7094-4.2801-6.8726-6.1182-9.6202-6.4531z"/></g>
</symbol>

<symbol id="1/4-circle-blue" width="76" height="76" viewBox="0 0 76 76" fill="none" >
<title>1/4-circle-blue</title>
<path d="M0 0H76V76C34.0264 76 0 41.9736 0 0Z" fill="#0057FC"/>
</symbol>

<symbol id="1/4-circle-yellow" width="127" height="127" viewBox="0 0 127 127" fill="none">
<title>1/4-circle-yellow</title>
<path d="M0 0H127V127C56.8598 127 0 70.1402 0 0Z" fill="#FFDD0F"/>
</symbol>

<symbol id="icon-support">
<title>icon-support</title>
<title></title>
<clipPath id="a"><path d="m0 0h36v36h-36z"/></clipPath><g clip-path="url(#a)"><path d="m28.5 10.5h7.5v3h-7.5zm-3 7.5h10.5v3h-10.5zm4.5 7.5h6v3h-6zm-27 7.5c0-3.1826 1.26428-6.2348 3.51472-8.4853 2.25044-2.2504 5.30268-3.5147 8.48528-3.5147s6.2348 1.2643 8.4853 3.5147c2.2504 2.2505 3.5147 5.3027 3.5147 8.4853h-3c0-2.3869-.9482-4.6761-2.636-6.364-1.6879-1.6878-3.9771-2.636-6.364-2.636s-4.6761.9482-6.36396 2.636c-1.68783 1.6879-2.63604 3.9771-2.63604 6.364zm12-13.5c-4.9725 0-9-4.0275-9-9s4.0275-9 9-9 9 4.0275 9 9-4.0275 9-9 9zm0-3c3.315 0 6-2.685 6-6s-2.685-6-6-6-6 2.685-6 6 2.685 6 6 6z"/></g>
</symbol>

<symbol id="icon-earth" >
<title>icon-earth</title>
<clipPath id="a"><path d="m0 0h36v36h-36z"/></clipPath><g clip-path="url(#a)"><path d="m7.623 8.0154c-2.29492 2.3819-3.6999 5.4813-3.97877 8.7771-.27888 3.2958.58536 6.5872 2.44743 9.3208 1.86208 2.7337 4.60844 4.743 7.77754 5.6902s6.5676.7746 9.6244-.4889c.207-1.35-.2466-2.646-.432-3.0996-.414-1.008-1.7784-2.7306-4.0554-5.1192-.6084-.639-.5688-1.1304-.351-2.5866l.0234-.1638c.1476-.9972.396-1.5876 3.753-2.1204 1.7064-.27 2.1546.4104 2.7756 1.3554l.2088.3096c.5904.864 1.0278 1.062 1.6884 1.3608.297.135.666.306 1.161.585 1.1736.6714 1.1736 1.4292 1.1736 3.0888v.189c0 .7038-.0684 1.323-.1764 1.8612 1.3813-1.7335 2.3438-3.7625 2.8127-5.9289.4688-2.1663.4314-4.4117-.1094-6.5612-.5409-2.1496-1.5705-4.1453-3.0088-5.83185-1.4382-1.68654-3.2463-3.01838-5.2835-3.89185-.9954.6714-2.3616 1.6236-2.8386 2.277-.243.333-.5886 2.0376-1.71 2.178-.2916.036-.6858.0108-1.1034-.0162-1.1196-.072-2.6496-.171-3.1392 1.1592-.3114.8424-.3654 3.132.6408 4.32.162.189.1926.54.0828.9342-.144.5166-.4338.8316-.5256.8964-.1728-.1008-.5184-.5022-.7542-.774-.5634-.657-1.269-1.476-2.1798-1.728-.3312-.0918-.6948-.1674-1.0494-.243-.9882-.207-2.106-.4428-2.367-.9972-.1908-.4068-.189-.9666-.189-1.557 0-.7506 0-1.5984-.3672-2.421-.12766-.29357-.31527-.5572-.5508-.774zm10.377 27.9846c-9.9414 0-18-8.0586-18-18s8.0586-18 18-18 18 8.0586 18 18-8.0586 18-18 18z" /></g>
</symbol>

<symbol id="icon-team" >
<title>icon-team</title>
<clipPath id="a"><path d="m0 0h36v36h-36z"/></clipPath><g clip-path="url(#a)"><path d="m18 16.4c2.1217 0 4.1566.8429 5.6569 2.3431 1.5002 1.5003 2.3431 3.5352 2.3431 5.6569v9.6h-3.2v-9.6c.0001-1.2243-.4677-2.4024-1.3077-3.2932-.8399-.8908-1.9885-1.427-3.2107-1.4988l-.2816-.008c-1.2243-.0001-2.4024.4677-3.2932 1.3077-.8908.8399-1.427 1.9885-1.4988 3.2107l-.008.2816v9.6h-3.2v-9.6c0-2.1217.8429-4.1566 2.3431-5.6569 1.5003-1.5002 3.5352-2.3431 5.6569-2.3431zm-10.4 4.8c.4464 0 .88.0528 1.296.1504-.27356.8144-.43557 1.6621-.4816 2.52l-.0144.5296v.1376c-.18391-.0658-.37521-.1088-.5696-.128l-.2304-.0096c-.59661 0-1.17183.2223-1.61347.6234-.44165.4011-.71806.9523-.77533 1.5462l-.0112.2304v7.2h-3.2v-7.2c0-1.4852.59-2.9096 1.6402-3.9598 1.05021-1.0502 2.47459-1.6402 3.9598-1.6402zm20.8 0c1.4852 0 2.9096.59 3.9598 1.6402s1.6402 2.4746 1.6402 3.9598v7.2h-3.2v-7.2c0-.5966-.2223-1.1718-.6234-1.6135-.4011-.4416-.9523-.718-1.5462-.7753l-.2304-.0112c-.28 0-.5488.048-.8.136v-.136c0-1.0656-.1728-2.0896-.4944-3.0464.4144-.1008.848-.1536 1.2944-.1536zm-20.8-9.6c1.06087 0 2.07828.4214 2.8284 1.1716.7502.7501 1.1716 1.7675 1.1716 2.8284s-.4214 2.0783-1.1716 2.8284c-.75012.7502-1.76753 1.1716-2.8284 1.1716s-2.07828-.4214-2.82843-1.1716c-.75014-.7501-1.17157-1.7675-1.17157-2.8284s.42143-2.0783 1.17157-2.8284c.75015-.7502 1.76756-1.1716 2.82843-1.1716zm20.8 0c1.0609 0 2.0783.4214 2.8284 1.1716.7502.7501 1.1716 1.7675 1.1716 2.8284s-.4214 2.0783-1.1716 2.8284c-.7501.7502-1.7675 1.1716-2.8284 1.1716s-2.0783-.4214-2.8284-1.1716c-.7502-.7501-1.1716-1.7675-1.1716-2.8284s.4214-2.0783 1.1716-2.8284c.7501-.7502 1.7675-1.1716 2.8284-1.1716zm-20.8 3.2c-.21217 0-.41566.0843-.56569.2343-.15002.15-.23431.3535-.23431.5657s.08429.4157.23431.5657c.15003.15.35352.2343.56569.2343s.41566-.0843.56569-.2343c.15002-.15.23431-.3535.23431-.5657s-.08429-.4157-.23431-.5657c-.15003-.15-.35352-.2343-.56569-.2343zm20.8 0c-.2122 0-.4157.0843-.5657.2343s-.2343.3535-.2343.5657.0843.4157.2343.5657.3535.2343.5657.2343.4157-.0843.5657-.2343.2343-.3535.2343-.5657-.0843-.4157-.2343-.5657-.3535-.2343-.5657-.2343zm-10.4-12.8c1.6974 0 3.3253.67428 4.5255 1.87452 1.2002 1.20023 1.8745 2.82809 1.8745 4.52548 0 1.6974-.6743 3.3253-1.8745 4.5255s-2.8281 1.8745-4.5255 1.8745-3.3253-.6743-4.5255-1.8745-1.8745-2.8281-1.8745-4.5255c0-1.69739.6743-3.32525 1.8745-4.52548 1.2002-1.20024 2.8281-1.87452 4.5255-1.87452zm0 3.2c-.8487 0-1.6626.33714-2.2627.93726-.6002.60011-.9373 1.41405-.9373 2.26274s.3371 1.6626.9373 2.2627c.6001.6002 1.414.9373 2.2627.9373s1.6626-.3371 2.2627-.9373c.6002-.6001.9373-1.41401.9373-2.2627s-.3371-1.66263-.9373-2.26274c-.6001-.60012-1.414-.93726-2.2627-.93726z" /></g>
</symbol>

<symbol id="icon-logo" fill="none" viewBox="0 0 130 44">
<title>icon-logo</title>
<path d="m64.96 34v-3.2h6.432c1.1307 0 2.0053-.352 2.624-1.056s.928-1.5147.928-2.432c0-.6187-.1387-1.1947-.416-1.728s-.6827-.96-1.216-1.28-1.1733-.48-1.92-.48h-6.432v-3.2h5.888c.96 0 1.728-.2453 2.304-.736s.864-1.216.864-2.176-.288-1.6853-.864-2.176-1.344-.736-2.304-.736h-5.888v-3.2h5.984c1.5147 0 2.7733.2773 3.776.832s1.7493 1.2693 2.24 2.144.736 1.8133.736 2.816c0 1.1733-.3307 2.208-.992 3.104-.64.896-1.5893 1.6213-2.848 2.176l.288-1.152c1.408.576 2.5067 1.3867 3.296 2.432s1.184 2.272 1.184 3.68c0 1.152-.288 2.208-.864 3.168-.5547.96-1.3867 1.7387-2.496 2.336-1.088.576-2.432.864-4.032.864zm-2.528 0v-22.4h3.68v22.4zm25.8583.32c-1.3867 0-2.6454-.352-3.776-1.056-1.1094-.704-1.9947-1.6533-2.656-2.848-.64-1.216-.96-2.5707-.96-4.064 0-1.5147.32-2.8693.96-4.064.6613-1.216 1.5466-2.176 2.656-2.88 1.1306-.7253 2.3893-1.088 3.776-1.088 1.1733 0 2.208.256 3.104.768.9173.4907 1.6426 1.1733 2.176 2.048.5333.8747.8 1.8667.8 2.976v4.416c0 1.1093-.2667 2.1013-.8 2.976-.512.8747-1.2267 1.568-2.144 2.08-.9174.4907-1.9627.736-3.136.736zm.576-3.328c1.3013 0 2.3466-.4373 3.136-1.312.8106-.8747 1.216-1.9947 1.216-3.36 0-.9173-.1814-1.728-.544-2.432-.3627-.704-.8747-1.248-1.536-1.632-.64-.4053-1.3974-.608-2.272-.608-.8534 0-1.6107.2027-2.272.608-.64.384-1.152.928-1.536 1.632-.3627.704-.544 1.5147-.544 2.432s.1813 1.728.544 2.432c.384.704.896 1.2587 1.536 1.664.6613.384 1.4186.576 2.272.576zm4.128 3.008v-4.128l.608-3.744-.608-3.712v-3.776h3.52v15.36zm12.4507.32c-.854 0-1.675-.1067-2.464-.32-.79-.2347-1.515-.5547-2.176-.96-.662-.4267-1.2376-.9387-1.7282-1.536l2.2402-2.24c.533.6187 1.141 1.088 1.824 1.408.704.2987 1.493.448 2.368.448.789 0 1.386-.1173 1.792-.352.405-.2347.608-.576.608-1.024 0-.4693-.192-.832-.576-1.088s-.886-.4693-1.504-.64c-.598-.192-1.238-.384-1.92-.576-.662-.192-1.302-.448-1.92-.768-.598-.3413-1.088-.8-1.472-1.376s-.5762-1.3227-.5762-2.24c0-.9813.2242-1.824.6722-2.528.469-.704 1.12-1.248 1.952-1.632.853-.384 1.866-.576 3.04-.576 1.237 0 2.325.224 3.264.672.96.4267 1.76 1.0773 2.4 1.952l-2.24 2.24c-.448-.5547-.96-.9707-1.536-1.248s-1.238-.416-1.984-.416c-.704 0-1.248.1067-1.632.32s-.576.5227-.576.928c0 .4267.192.7573.576.992s.874.4373 1.472.608c.618.1707 1.258.3627 1.92.576.682.192 1.322.4693 1.92.832.618.3413 1.12.8107 1.504 1.408.384.576.576 1.3333.576 2.272 0 1.4933-.523 2.6773-1.568 3.552-1.046.8747-2.464 1.312-4.256 1.312zm15.862 0c-1.536 0-2.923-.3413-4.16-1.024-1.216-.704-2.187-1.664-2.912-2.88-.704-1.216-1.056-2.5813-1.056-4.096s.352-2.8693 1.056-4.064c.704-1.216 1.653-2.176 2.848-2.88 1.216-.704 2.56-1.056 4.032-1.056 1.429 0 2.688.3307 3.776.992 1.109.6613 1.973 1.568 2.592 2.72.64 1.152.96 2.464.96 3.936 0 .256-.022.5227-.064.8-.022.256-.064.544-.128.864h-12.608v-2.88h10.784l-1.312 1.152c-.043-.9387-.224-1.728-.544-2.368s-.779-1.1307-1.376-1.472c-.576-.3413-1.291-.512-2.144-.512-.896 0-1.675.192-2.336.576-.662.384-1.174.928-1.536 1.632-.363.6827-.544 1.504-.544 2.464s.192 1.8027.576 2.528.928 1.2907 1.632 1.696c.704.384 1.514.576 2.432.576.789 0 1.514-.1387 2.176-.416.682-.2773 1.258-.6827 1.728-1.216l2.24 2.272c-.747.8747-1.654 1.536-2.72 1.984-1.067.448-2.198.672-3.392.672z" fill="#181c31"/><rect fill="#4e6bff" height="44" rx="10" width="44"/><path d="m22.625 19.625h7.4861l-9.625 13.9028v-9.625h-7.4861l9.625-13.9028z" fill="#fff"/>
</symbol>

<symbol id="1/2-circle-yellow" fill="none" viewBox="0 0 43 86" >
<title>1/2-circle-yellow</title>
<path d="m0 86c5.64684 0 11.2384-1.1122 16.4554-3.2732 5.217-2.1609 9.9573-5.3283 13.9502-9.3212s7.1603-8.7332 9.3212-13.9502c2.161-5.217 3.2732-10.8086 3.2732-16.4554s-1.1122-11.2384-3.2732-16.4554c-2.1609-5.217-5.3283-9.9573-9.3212-13.9502-3.9929-3.99291-8.7332-7.16027-13.9502-9.32122s-10.80856-3.27318025-16.4554-3.27318z" fill="#ffdd0f"/>
</symbol>

<symbol id="1/2-circle-blue" fill="none" viewBox="0 0 198 99" >
<title>1/2-circle-blue</title>
<path d="m198 98.9998c0-13.0009-2.561-25.8745-7.536-37.8857s-12.267-22.9249-21.46-32.1179-20.107-16.4853-32.118-21.46052c-12.012-4.97521-24.885-7.53592471-37.886-7.53592414-13.0009.00000057-25.8744 2.56071414-37.8857 7.53592414-12.0112 4.97522-22.9249 12.26752-32.1179 21.46052s-16.4853 20.1067-21.46048 32.1179c-4.97521 12.0112-7.53592114 24.8848-7.53592 37.8857z" fill="#4e6bff"/>
</symbol>

<symbol id="icon-play" fill="none" viewBox="0 0 24 24" >
<title>icon-play</title>
<clipPath id="a"><path d="m0 0h24v24h-24z"/></clipPath><g clip-path="url(#a)"><path d="m19.376 12.4159-10.599 7.066c-.07529.0502-.16277.0789-.25311.0832s-.18016-.0159-.25989-.0586-.1464-.1062-.19289-.1838-.07106-.1663-.07111-.2568v-14.13195c.00005-.09045.02462-.17918.07111-.25676s.11316-.1411.19289-.18378c.07973-.04269.16955-.06296.25989-.05863.09034.00432.17782.03306.25311.08317l10.599 7.06595c.0685.0457.1246.1076.1635.1801.0388.0726.0591.1536.0591.2359 0 .0824-.0203.1634-.0591.236-.0389.0725-.095.1344-.1635.18z" fill="#fff"/></g>
</symbol>

<symbol id="empty-circle" fill="none" viewBox="0 0 54 54">
<title>empty-circle</title>
<circle cx="27" cy="27" r="23.5" stroke-width="7"/>
</symbol>

<symbol id="triangle-pink" fill="none" viewBox="0 0 80 69">
<title>triangle-pink</title>
<path d="m40 0 39.8372 69h-79.67437z" fill="#f36a8d"/>
</symbol>

<symbol id="triangle-orange" fill="none" viewBox="0 0 47 54">
<title>triangle-orange</title>
<path d="m.5.15332 46.5 26.84678-46.499997 26.8468z" fill="#fa9161"/>
</symbol>

<symbol id="icon-facebook" class="uh vl ml il" viewBox="0 0 10 18">
<title>icon-facebook</title>
<path d="M6.66634 10.25H8.74968L9.58301 6.91669H6.66634V5.25002C6.66634 4.39169 6.66634 3.58335 8.33301 3.58335H9.58301V0.783354C9.31134 0.74752 8.28551 0.666687 7.20218 0.666687C4.93968 0.666687 3.33301 2.04752 3.33301 4.58335V6.91669H0.833008V10.25H3.33301V17.3334H6.66634V10.25Z"></path>
</symbol>

<symbol id="icon-twitter" class="uh vl ml il" viewBox="0 0 18 14">
<title>icon-twitter</title> 
<path d="M17.4683 1.71333C16.8321 1.99475 16.1574 2.17956 15.4666 2.26167C16.1947 1.82619 16.7397 1.14085 16.9999 0.333333C16.3166 0.74 15.5674 1.025 14.7866 1.17917C14.2621 0.617982 13.5669 0.245803 12.809 0.120487C12.0512 -0.00482822 11.2732 0.123742 10.596 0.486211C9.91875 0.848679 9.38024 1.42474 9.06418 2.12483C8.74812 2.82492 8.67221 3.60982 8.84825 4.3575C7.46251 4.28805 6.10686 3.92794 4.86933 3.30055C3.63179 2.67317 2.54003 1.79254 1.66492 0.715833C1.35516 1.24788 1.19238 1.85269 1.19326 2.46833C1.19326 3.67667 1.80826 4.74417 2.74326 5.36917C2.18993 5.35175 1.64878 5.20232 1.16492 4.93333V4.97667C1.16509 5.78142 1.44356 6.56135 1.95313 7.18422C2.46269 7.80709 3.17199 8.23456 3.96075 8.39417C3.4471 8.53337 2.90851 8.55388 2.38576 8.45417C2.60814 9.14686 3.04159 9.75267 3.62541 10.1868C4.20924 10.6209 4.9142 10.8615 5.64159 10.875C4.91866 11.4428 4.0909 11.8625 3.20566 12.1101C2.32041 12.3578 1.39503 12.4285 0.482422 12.3183C2.0755 13.3429 3.93 13.8868 5.82409 13.885C12.2349 13.885 15.7408 8.57417 15.7408 3.96833C15.7408 3.81833 15.7366 3.66667 15.7299 3.51833C16.4123 3.02514 17.0013 2.41418 17.4691 1.71417L17.4683 1.71333Z"></path>
</symbol>

<symbol id="icon-linkedin" class="uh vl ml il" viewBox="0 0 17 16">
<title>icon-linkedin</title>
<path d="M3.78353 2.16665C3.78331 2.60867 3.6075 3.03251 3.29478 3.34491C2.98207 3.65732 2.55806 3.8327 2.11603 3.83248C1.674 3.83226 1.25017 3.65645 0.937761 3.34373C0.625357 3.03102 0.449975 2.60701 0.450196 2.16498C0.450417 1.72295 0.626223 1.29912 0.93894 0.986712C1.25166 0.674307 1.67567 0.498925 2.1177 0.499146C2.55972 0.499367 2.98356 0.675173 3.29596 0.98789C3.60837 1.30061 3.78375 1.72462 3.78353 2.16665V2.16665ZM3.83353 5.06665H0.500195V15.5H3.83353V5.06665ZM9.1002 5.06665H5.78353V15.5H9.06686V10.025C9.06686 6.97498 13.0419 6.69165 13.0419 10.025V15.5H16.3335V8.89165C16.3335 3.74998 10.4502 3.94165 9.06686 6.46665L9.1002 5.06665V5.06665Z"></path>
</symbol>

<symbol id="icon-be" class="th lm ml il" viewBox="0 0 22 14" >
<path d="M6.82308 0.904297C7.40883 0.904297 7.95058 0.95013 8.44558 1.0858C8.89476 1.16834 9.32351 1.33772 9.70783 1.58446C10.069 1.81088 10.3394 2.12896 10.5191 2.53688C10.6997 2.9448 10.7895 3.44438 10.7895 3.98796C10.7895 4.62321 10.6547 5.1668 10.3394 5.57471C10.069 5.98355 9.61799 6.34563 9.07716 6.61788C9.84349 6.84521 10.4292 7.25313 10.7895 7.79672C11.1507 8.34122 11.3762 9.02138 11.3762 9.7923C11.3762 10.4275 11.2405 10.9711 11.015 11.4249C10.7895 11.8786 10.4292 12.2865 10.0232 12.5588C9.58205 12.8506 9.09443 13.0651 8.58124 13.1931C8.04041 13.3297 7.49958 13.4205 6.95874 13.4205H0.916992V0.904297H6.82308ZM6.46191 5.98263C6.95783 5.98263 7.36391 5.84696 7.67924 5.62055C7.99458 5.39413 8.13024 4.9853 8.13024 4.48663C8.13024 4.21438 8.08441 3.94213 7.99458 3.76155C7.90474 3.58005 7.76908 3.44346 7.58941 3.3078C7.40883 3.21705 7.22824 3.1263 7.00274 3.08138C6.77724 3.03555 6.55266 3.03555 6.28133 3.03555H3.66699V5.98355H6.46283L6.46191 5.98263ZM6.59758 11.3341C6.86799 11.3341 7.13841 11.2883 7.36391 11.2434C7.59159 11.2001 7.80692 11.1071 7.99458 10.9711C8.17826 10.8384 8.33193 10.6685 8.44558 10.4725C8.53541 10.246 8.62616 9.9738 8.62616 9.65663C8.62616 9.02138 8.44558 8.56763 8.08533 8.25046C7.72416 7.97822 7.22824 7.84255 6.64249 7.84255H3.66699V11.335H6.59758V11.3341ZM15.2986 11.2883C15.6588 11.6513 16.1997 11.8328 16.9211 11.8328C17.417 11.8328 17.868 11.6971 18.2282 11.4707C18.5894 11.1985 18.8149 10.9262 18.9047 10.654H21.1139C20.7527 11.742 20.2119 12.513 19.4914 13.0116C18.7691 13.4654 17.9129 13.7376 16.8762 13.7376C16.2128 13.7396 15.5551 13.6165 14.9374 13.3746C14.3816 13.1661 13.886 12.8235 13.4946 12.3773C13.0759 11.9598 12.7665 11.4457 12.5935 10.8804C12.368 10.291 12.2772 9.65663 12.2772 8.93063C12.2772 8.25047 12.368 7.61613 12.5935 7.0258C12.8103 6.45755 13.1311 5.93468 13.5395 5.48396C13.9456 5.07605 14.4415 4.71396 14.9823 4.48663C15.5843 4.24469 16.2274 4.12143 16.8762 4.12363C17.6425 4.12363 18.319 4.26021 18.9047 4.57738C19.4914 4.89455 19.9415 5.25755 20.3027 5.80205C20.6711 6.32503 20.9456 6.90819 21.1139 7.52538C21.2037 8.15972 21.2487 8.79497 21.2037 9.52005H14.667C14.667 10.246 14.9374 10.9262 15.2986 11.2892V11.2883ZM18.1384 6.52713C17.8231 6.20996 17.3272 6.02846 16.7405 6.02846C16.3353 6.02846 16.0191 6.11922 15.7487 6.25488C15.4782 6.39147 15.2986 6.57297 15.118 6.75447C14.952 6.92978 14.8422 7.15067 14.8027 7.3888C14.7568 7.61613 14.7119 7.79672 14.7119 7.97822H18.7691C18.6792 7.29805 18.4537 6.84522 18.1384 6.52713ZM14.1711 1.76596H19.2201V2.99063H14.172V1.76596H14.1711Z" fill=""></path>
</symbol>


<symbol id="icon-chart" fill="none" viewBox="0 0 50 50">
<title>icon-chart</title>
<clipPath id="a"><path d="m0 0h50v50h-50z"/></clipPath><g clip-path="url(#a)" fill="#4e6bff"><path d="m4.16699 27.0833h12.50001v16.6667h-12.50001zm14.58331-20.8333h12.5v37.5h-12.5z"/><path d="m33.333 16.6667h12.5v27.0833h-12.5z" opacity=".5"/></g>
</symbol>

<symbol id="icon-layers" fill="none" viewBox="0 0 50 50">
<title>icon-layers</title>
<clipPath id="a"><path d="m0 0h50v50h-50z"/></clipPath><g clip-path="url(#a)" fill="#4e6bff"><path d="m26.0706 2.72709 18.2729 10.96251c.1545.0925.2824.2234.3712.3801.0888.1566.1354.3336.1354.5136 0 .1801-.0466.3571-.1354.5137-.0888.1567-.2167.2876-.3712.3801l-19.3437 11.6062-19.34377-11.6062c-.15449-.0925-.28236-.2234-.37115-.3801-.08879-.1566-.13547-.3336-.13547-.5137 0-.18.04668-.357.13547-.5136.08879-.1567.21666-.2876.37115-.3801l18.27087-10.96251c.324-.19468.6949-.29752 1.0729-.29752s.7489.10284 1.0729.29752z"/><path d="m41.8394 21.875 2.5041 1.5021c.1545.0925.2824.2235.3712.3801s.1354.3336.1354.5137c0 .18-.0466.357-.1354.5137-.0888.1566-.2167.2875-.3712.38l-19.3437 11.6063-19.34377-11.6063c-.15449-.0925-.28236-.2234-.37115-.38-.08879-.1567-.13547-.3337-.13547-.5137 0-.1801.04668-.3571.13547-.5137s.21666-.2876.37115-.3801l2.50417-1.5021 16.8396 10.1042zm0 9.7917 2.5041 1.5021c.1545.0925.2824.2234.3712.3801.0888.1566.1354.3336.1354.5136 0 .1801-.0466.3571-.1354.5137-.0888.1567-.2167.2876-.3712.3801l-18.2708 10.9625c-.324.1947-.6949.2975-1.0729.2975s-.7489-.1028-1.0729-.2975l-18.27087-10.9625c-.15449-.0925-.28236-.2234-.37115-.3801-.08879-.1566-.13547-.3336-.13547-.5137 0-.18.04668-.357.13547-.5136.08879-.1567.21666-.2876.37115-.3801l2.50417-1.5021 16.8396 10.1042z" opacity=".5"/></g>
</symbol>


<symbol id="icon-planner" fill="none" viewBox="0 0 50 50">
<title>icon-planner</title>
<clipPath id="a"><path d="m0 0h50v50h-50z"/></clipPath><g clip-path="url(#a)" fill="#4e6bff"><path d="m41.6667 45.8333h-33.33337c-.55253 0-1.08244-.2195-1.47314-.6102s-.61019-.9206-.61019-1.4731v-27.0833h37.5v27.0833c0 .5525-.2195 1.0824-.6102 1.4731s-.9206.6102-1.4731.6102zm-27.0834-22.9166v8.3333h8.3334v-8.3333zm0 12.5v4.1666h20.8334v-4.1666zm12.5-10.4167v4.1667h8.3334v-4.1667z"/><path d="m43.75 12.5h-37.5v-6.25004c0-.55254.21949-1.08244.61019-1.47314s.92061-.61019 1.47314-.61019h33.33337c.5525 0 1.0824.21949 1.4731.61019s.6102.9206.6102 1.47314z" opacity=".5"/></g>
</symbol>


<symbol id="icon-optimize" fill="none" viewBox="0 0 50 50">
<title>icon-optimize</title>
<clipPath id="a"><path d="m0 0h50v50h-50z"/></clipPath><g clip-path="url(#a)" fill="#4e6bff"><path d="m25.0003 4.16667c11.5063 0 20.8334 9.32713 20.8334 20.83333s-9.3271 20.8333-20.8334 20.8333c-11.5062 0-20.83331-9.3271-20.83331-20.8333s9.32711-20.83333 20.83331-20.83333zm0 4.16666c-9.2041 0-16.66664 7.46247-16.66664 16.66667s7.46254 16.6667 16.66664 16.6667c9.2042 0 16.6667-7.4625 16.6667-16.6667s-7.4625-16.66667-16.6667-16.66667zm8.8375 4.88127 2.9479 2.9458-7.7583 7.7625c.0917.3438.1396.7042.1396 1.0771 0 2.3021-1.8646 4.1667-4.1667 4.1667s-4.1666-1.8646-4.1666-4.1667 1.8645-4.1667 4.1666-4.1667c.3729 0 .7334.048 1.0771.1396l7.7625-7.7583z"/><path d="m25.0003 10.4166c2.1209 0 4.1354.4521 5.9542 1.2667l-3.2563 3.2542c-.8604-.2292-1.7645-.3542-2.6979-.3542-5.7521 0-10.4166 4.6646-10.4166 10.4167 0 2.875 1.1666 5.4791 3.05 7.3666l-2.9459 2.9459-.325-.3355c-2.4458-2.6083-3.9458-6.1187-3.9458-9.977 0-8.0542 6.5292-14.5834 14.5833-14.5834zm13.3167 8.6313c.8125 1.8166 1.2667 3.8333 1.2667 5.9521 0 4.027-1.6334 7.6729-4.2709 10.3125l-2.9458-2.9459c1.8833-1.8875 3.05-4.4916 3.05-7.3666 0-.9334-.1229-1.8375-.3542-2.698z" opacity=".5"/></g>
</symbol>


<symbol id="icon-quote" fill="none" viewBox="0 0 56 56" >
<title>icon-qutoe</title>
<clipPath id="a"><path d="m0 0h56v56h-56z"/></clipPath><g clip-path="url(#a)"><path d="m10.6937 40.4156c-2.40337-2.5526-3.6937-5.4156-3.6937-10.0566 0-8.1667 5.733-15.4863 14.07-19.1053l2.0837 3.2153c-7.7817 4.2093-9.303 9.6717-9.9097 13.1156 1.253-.6486 2.8933-.8749 4.501-.7256 4.2093.3896 7.5273 3.8453 7.5273 8.141 0 2.1659-.8604 4.2431-2.3919 5.7747-1.5316 1.5315-3.6088 2.3919-5.7747 2.3919-2.5037 0-4.8977-1.1433-6.412-2.751zm23.3333 0c-2.4033-2.5526-3.6937-5.4156-3.6937-10.0566 0-8.1667 5.733-15.4863 14.07-19.1053l2.0837 3.2153c-7.7817 4.2093-9.303 9.6717-9.9097 13.1156 1.253-.6486 2.8934-.8749 4.501-.7256 4.2094.3896 7.5274 3.8453 7.5274 8.141 0 2.1659-.8604 4.2431-2.392 5.7747-1.5315 1.5315-3.6088 2.3919-5.7747 2.3919-2.5037 0-4.8977-1.1433-6.412-2.751z" fill="#e0e3f1"/></g>
</symbol>


<symbol id="testimonial-brand" fill="none" height="24" viewBox="0 0 120 24" width="120">
<title>testimonial-brand</title>
<clipPath id="a"><path d="m.001251 0h119.627v23.375h-119.627z"/></clipPath><g clip-path="url(#a)" clip-rule="evenodd" fill="#757693" fill-rule="evenodd"><path d="m3.64591 2.20068c.89412-.77703 1.93322-1.369378 3.05738-1.742879s2.31113-.5207659 3.49251-.4333037c1.1813.0874627 2.3337.4079217 3.3906.9428987 1.0569.534974 1.9974 1.273884 2.7673 2.174124 1.6558 1.67436 2.6229 3.90914 2.71 6.2623.0871 2.35318-.7121 4.65338-2.2395 6.44548l-7.05632 7.0585c-1.41561-.9408-3.76443-2.8236-2.82359-4.7064 1.88276-2.3531 4.23271-4.2326 6.11871-6.5891 1.4156-1.88275.4704-5.64827-2.3532-6.11869-.6335-.22131-1.31321-.2763-1.97405-.15969-.66084.1166-1.28069.4009-1.80019.82566-.51951.42476-.92128.97577-1.16685 1.60027s-.32672 1.30159-.23568 1.96644c0 2.35321 1.88276 3.76441 3.29402 5.17681-1.41561 1.4156-3.29402 2.3531-3.29402 4.2326-1.41561-1.8827-3.76444-3.294-4.706361-5.6482-.8601706-1.9256-1.049881-4.08401-.538799-6.13011.511082-2.04611 1.69344-3.86177 3.35804-5.15671z"/><path d="m33.7658 2.19949c.4704-1.41561 1.8827-.94084 2.8235-.94084v17.41205h-2.8235v-1.4156c-1.1331.9134-2.5448 1.4116-4.0002 1.4116-1.4555 0-2.8671-.4982-4.0002-1.4116-1.3034-1.1902-2.084-2.8468-2.1721-4.6096s.5235-3.48901 1.7017-4.80317c1.0596-1.15428 2.5016-1.88559 4.059-2.05857 1.5573-.17297 3.1246.22411 4.4118 1.11774zm-4.2327 6.11871c-2.3532.47041-4.2327 3.7644-2.3532 6.1187.3516.5128.8319.9241 1.3927 1.1926s1.1824.3848 1.8023.3371c.62-.0477 1.2165-.2576 1.7296-.6086.5132-.3511.925-.831 1.1941-1.3915 1.4091-2.3543-.9452-5.6483-3.7688-5.6483z"/><path d="m38.9414 5.96504h2.8236v.94084c.9409-1.41561 2.8236-1.41561 4.7064-.94084-.4704.94084-.9408 1.41562-.9408 2.35319-1.8828-.47042-3.7645.47041-3.7645 1.88277v7.0595c-.4715 1.4156-1.8827 1.4156-2.8247 1.4156z"/><path d="m50.7063 5.96613c4.7063-1.88277 9.4127 2.8236 8.4708 7.52997-.942 4.7063-7.53 7.0595-10.8295 3.7644-3.7644-3.294-2.3531-10.35354 2.3532-11.29437zm1.4156 2.35318c-.7903.21083-1.511.62639-2.0893 1.20474s-.9939 1.29905-1.2047 2.08925c-.112.9923.1717 1.9886.7895 2.7731.6179.7844 1.5201 1.2936 2.511 1.4171s1.9905-.1485 2.782-.7572c.7916-.6087 1.3113-1.505 1.4463-2.4943 0-2.351-2.3521-4.7042-4.2337-4.23269z"/><path d="m61.062 5.96519h2.8236v.94193c1.2871-.89363 2.8544-1.29071 4.4118-1.11774 1.5573.17297 2.9993.90429 4.059 2.05857.5815.6051 1.0328 1.32303 1.3259 2.10944.293.78641.4217 1.62461.378 2.46271-.0436.8381-.2588 1.6583-.632 2.41s-.8967 1.4188-1.538 1.9602c-1.8827 2.3531-5.6483 2.3531-8.0003.9408v4.2327c-.4705 1.4156-1.8828 1.4156-2.8237 1.4156v-17.41421zm6.1187 2.35318c-2.8236.47042-4.2327 3.76443-2.8236 5.64833 1.4156 2.3531 5.1768 2.3531 6.1187 0 1.8806-2.3543-.4715-5.64397-3.2951-5.64397z"/><path d="m78.9455 6.43562c1.1911-.66793 2.5647-.93694 3.9197-.76763 1.355.1693 2.6202.76802 3.6103 1.70846-.4704.47042-.9408 1.41561-1.8828 1.88277-.4389-.35539-.9545-.60384-1.506-.72571-.5514-.12188-1.1237-.11385-1.6715.02345s-1.0562.40011-1.4851.76767c-.4288.36756-.7662.82977-.9856 1.35017-.2044.5573-.2776 1.1541-.2139 1.7443.0637.5901.2626 1.1576.5813 1.6583.3186.5008.7484.9213 1.256 1.229.5075.3077 1.0792.4943 1.6706.5452.9408 0 1.8827-.4704 2.8236-.4704.8408.3702 1.5125 1.0419 1.8827 1.8828-3.294 2.8236-8.9423 1.8827-10.3535-2.3532-1.8817-2.8236-.4705-6.5946 2.3542-8.47518z"/><path d="m86.946 14.4369c-1.4101-4.2359 1.8817-8.94227 6.1176-8.94227 1.6946.07332 3.3146.71787 4.5963 1.82881 1.2818 1.11094 2.15 2.62288 2.4631 4.28986v7.0574c-1.4154 0-2.353 0-3.2938-.9408-3.2941 2.3531-8.4708.4704-9.8832-3.2941zm6.1187-6.11867c-.6478.12255-1.2569.39813-1.7767.80377-.5197.40563-.935.9296-1.2113 1.5282-.2762.5987-.4054 1.2546-.3768 1.9133s.2141 1.301.5412 1.8734c1.8828 2.3532 5.6483 1.8828 6.5891-.4704.2411-.6206.3292-1.2901.257-1.952-.0723-.6618-.3028-1.2965-.6721-1.8505-.3694-.55397-.8666-1.0109-1.4497-1.33216-.5832-.32127-1.2351-.49743-1.9007-.51361z"/><path d="m102.006 5.96631h2.823v.94084c1.416-1.88276 4.707-1.41561 6.59.47041 2.353-2.82359 7.059-1.88276 8 1.41562.47 2.82362 0 6.11872 0 8.94232 0 .9408-1.416.9408-2.824.9408 0-2.8236.471-5.6483 0-8.4708-.092-.49397-.354-.94017-.74-1.26128-.387-.3211-.874-.49688-1.376-.49688-.503 0-.989.17578-1.376.49688-.386.32111-.648.76731-.74 1.26128v8.4708h-2.824c.078-2.9885-.079-5.9785-.47-8.94229-.471-1.88276-3.765-1.41561-3.765.47039-.391 2.8057-.548 5.6391-.47 8.4708h-2.828z"/></g>
</symbol>


<symbol id="icon-man" fill="none" viewBox="0 0 18 18" ><clipPath id="a"><path d="m0 0h18v18h-18z"/></clipPath><g clip-path="url(#a)"><path d="m15 16.5h-1.5v-1.5c0-.5967-.2371-1.169-.659-1.591-.422-.4219-.9943-.659-1.591-.659h-4.5c-.59674 0-1.16903.2371-1.59099.659-.42196.422-.65901.9943-.65901 1.591v1.5h-1.5v-1.5c0-.9946.39509-1.9484 1.09835-2.6516.70326-.7033 1.65709-1.0984 2.65165-1.0984h4.5c.9946 0 1.9484.3951 2.6516 1.0984.7033.7032 1.0984 1.657 1.0984 2.6516zm-6-6.75c-.59095 0-1.17611-.11639-1.72208-.34254-.54596-.22615-1.04204-.55762-1.4599-.97548-.41787-.41786-.74933-.91394-.97548-1.4599-.22614-.54597-.34254-1.13113-.34254-1.72208s.1164-1.17611.34254-1.72207c.22615-.54597.55761-1.04205.97548-1.45991.41786-.41786.91394-.74933 1.4599-.97548.54597-.226144 1.13113-.34254 1.72208-.34254 1.1935 0 2.3381.47411 3.182 1.31802s1.318 1.98851 1.318 3.18198c0 1.19348-.4741 2.33807-1.318 3.18198-.8439.84392-1.9885 1.31802-3.182 1.31802zm0-1.5c.79565 0 1.5587-.31607 2.1213-.87868s.8787-1.32567.8787-2.12132-.3161-1.55871-.8787-2.12132-1.32565-.87868-2.1213-.87868-1.55871.31607-2.12132.87868-.87868 1.32567-.87868 2.12132.31607 1.55871.87868 2.12132 1.32567.87868 2.12132.87868z" fill="#79808a"/></g></symbol>


<symbol id="icon-calender" fill="none" viewBox="0 0 18 18"><clipPath id="a"><path d="m0 0h18v18h-18z"/></clipPath><g clip-path="url(#a)"><path d="m12.75 2.25h3c.1989 0 .3897.07902.5303.21967.1407.14065.2197.33142.2197.53033v12c0 .1989-.079.3897-.2197.5303-.1406.1407-.3314.2197-.5303.2197h-13.5c-.19891 0-.38968-.079-.53033-.2197-.14065-.1406-.21967-.3314-.21967-.5303v-12c0-.19891.07902-.38968.21967-.53033s.33142-.21967.53033-.21967h3v-1.5h1.5v1.5h4.5v-1.5h1.5zm-1.5 1.5h-4.5v1.5h-1.5v-1.5h-2.25v3h12v-3h-2.25v1.5h-1.5zm3.75 4.5h-12v6h12z" fill="#79808a"/></g></symbol>

<symbol id="icon-arr" viewBox="0 0 20 20">
<g clip-path="url(#clip0_48_1487)">
<path d="M3.1175 1.17318L18.5025 9.63484C18.5678 9.67081 18.6223 9.72365 18.6602 9.78786C18.6982 9.85206 18.7182 9.92527 18.7182 9.99984C18.7182 10.0744 18.6982 10.1476 18.6602 10.2118C18.6223 10.276 18.5678 10.3289 18.5025 10.3648L3.1175 18.8265C3.05406 18.8614 2.98262 18.8792 2.91023 18.8781C2.83783 18.8769 2.76698 18.857 2.70465 18.8201C2.64232 18.7833 2.59066 18.7308 2.55478 18.6679C2.51889 18.6051 2.50001 18.5339 2.5 18.4615V1.53818C2.50001 1.46577 2.51889 1.39462 2.55478 1.33174C2.59066 1.26885 2.64232 1.2164 2.70465 1.17956C2.76698 1.14272 2.83783 1.12275 2.91023 1.12163C2.98262 1.12051 3.05406 1.13828 3.1175 1.17318ZM4.16667 10.8332V16.3473L15.7083 9.99984L4.16667 3.65234V9.16651H8.33333V10.8332H4.16667Z"></path>
</g>
<defs>
<clipPath id="clip0_48_1487">
<rect width="20" height="20"></rect>
</clipPath>
</defs>
</symbol>

<symbol id="icon-arrowup" viewBox="0 0 512 512">
    <path d="M233.4 105.4c12.5-12.5 32.8-12.5 45.3 0l192 192c12.5 12.5 12.5 32.8 0 45.3s-32.8 12.5-45.3 0L256 173.3 86.6 342.6c-12.5 12.5-32.8 12.5-45.3 0s-12.5-32.8 0-45.3l192-192z"></path>
  </symbol>

</svg>